<?xml version="1.0" encoding="UTF-8"?>
<!DOCTYPE svg PUBLIC "-//W3C//DTD SVG 1.1//EN" "http://www.w3.org/Graphics/SVG/1.1/DTD/svg11.dtd">
<svg xmlns="http://www.w3.org/2000/svg" version="1.1" width="866px" height="288px" style="shape-rendering:geometricPrecision; text-rendering:geometricPrecision; image-rendering:optimizeQuality; fill-rule:evenodd; clip-rule:evenodd" xmlns:xlink="http://www.w3.org/1999/xlink">
<g><path fill="#f9efe2" fill-opacity="0.114" d="M 38.76,144.02 C 83.01,144 127.25,144 171.5,144.02 C 191.5,143.64 211.5,143.64 231.5,144.02 C 274.85,143.94 318.19,143.99 361.52,144.2 C 363.73,144.16 365.93,143.98 368.11,143.64 C 368.02,144.12 367.76,144.48 367.34,144.73 C 365.07,144.93 362.79,145.04 360.5,145.06 C 254.16,144.84 147.83,144.83 41.49,145.04 C 40.83,145.09 40.18,145.03 39.54,144.87 C 39.14,144.71 38.88,144.43 38.76,144.02 Z M 495.8,144.22 C 551.02,144.12 606.24,143.94 661.48,143.65 C 668.49,143.69 675.5,143.82 682.5,144.03 C 727.49,143.95 772.48,143.99 817.47,144.17 C 820.54,144.06 823.61,143.95 826.69,143.85 C 826.83,144.26 826.71,144.58 826.34,144.8 C 823.4,144.97 820.46,145.05 817.5,145.04 C 711.16,144.9 604.82,144.92 498.49,145.1 C 497.83,145.13 497.17,145.08 496.53,144.94 C 496.15,144.82 495.91,144.58 495.8,144.22 Z"/></g>
<g><path fill="#fff8d5" fill-opacity="0.043" d="M 208.5,142.96 C 156.17,143.04 103.84,143.01 51.51,142.86 C 47.35,142.93 43.19,143.06 39.04,143.25 C 38.95,142.73 39.13,142.33 39.58,142.06 C 41.55,141.96 43.52,141.91 45.5,141.89 C 98.83,142.04 152.16,142.06 205.49,141.94 C 206.66,141.85 207.66,142.19 208.5,142.96 Z M 367.21,143.05 C 315,143 262.8,142.97 210.59,142.95 C 210.73,142.57 211,142.32 211.4,142.21 C 212.08,142.02 212.77,141.94 213.47,141.96 C 263.48,142.02 313.49,141.99 363.49,141.88 C 364.55,141.84 365.6,141.95 366.63,142.2 C 367.05,142.35 367.24,142.63 367.21,143.05 Z M 826.66,143.09 C 722.95,143.03 619.24,142.94 515.53,142.8 C 509.03,142.75 502.55,142.89 496.07,143.23 C 495.93,142.73 496.08,142.37 496.54,142.13 C 498.86,141.99 501.18,141.91 503.5,141.88 C 610.83,142 718.16,142.06 825.5,142.05 C 826.19,142.07 826.58,142.42 826.66,143.09 Z"/></g>
<g><path fill="#c3ac8c" fill-opacity="0.945" d="M 496.07,143.23 C 502.55,142.89 509.03,142.75 515.53,142.8 C 619.24,142.94 722.95,143.03 826.66,143.09 C 826.67,143.34 826.68,143.6 826.69,143.85 C 823.61,143.95 820.54,144.06 817.47,144.17 C 772.48,143.99 727.49,143.95 682.5,144.03 C 675.5,143.82 668.49,143.69 661.48,143.65 C 606.24,143.94 551.02,144.12 495.8,144.22 C 495.89,143.89 495.98,143.56 496.07,143.23 Z"/></g>
<g><path fill="#c5ae8e" fill-opacity="0.937" d="M 39.04,143.25 C 43.19,143.06 47.35,142.93 51.51,142.86 C 103.84,143.01 156.17,143.04 208.5,142.96 C 209.2,142.95 209.89,142.95 210.59,142.95 C 262.8,142.97 315,143 367.21,143.05 C 367.54,143.2 367.84,143.4 368.11,143.64 C 365.93,143.98 363.73,144.16 361.52,144.2 C 318.19,143.99 274.85,143.94 231.5,144.02 C 211.5,143.64 191.5,143.64 171.5,144.02 C 127.25,144 83.01,144 38.76,144.02 C 38.1,143.53 38.19,143.27 39.04,143.25 Z"/></g>
<g><path fill="#f9d59a" fill-opacity="0.996" stroke="#f9d59a" stroke-width="0.5" stroke-opacity="0.996" d="M 429.01,123.16 C 430.03,124.98 430.99,126.83 431.87,128.71 C 432.29,128.95 432.62,128.85 432.87,128.41 C 433.21,127.27 433.64,126.16 434.17,125.09 C 434.96,124.81 435.74,124.53 436.53,124.26 C 437.77,125.69 437.75,127.13 436.49,128.59 C 437.11,129.44 437.27,130.35 436.96,131.34 C 436.22,131.68 435.51,132.09 434.84,132.57 C 434.46,133.5 434.71,134.2 435.59,134.65 C 436.11,134.46 436.63,134.46 437.13,134.65 C 437.19,135.87 437.19,137.1 437.13,138.34 C 437.58,139.61 438.34,140.66 439.41,141.5 C 439.67,142.71 439.31,143.72 438.34,144.54 C 438.87,145.21 439.43,145.85 440.04,146.47 C 440.42,147.15 440.77,147.85 441.08,148.57 C 440.84,149.62 440.47,150.62 439.96,151.58 C 440.01,151.81 440.07,152.04 440.12,152.27 C 440.88,152.55 441.57,152.94 442.18,153.44 C 441.69,154.35 441.12,155.2 440.45,156.01 C 440.19,156.9 440.45,157.66 441.22,158.28 C 442.14,158.67 442.96,159.21 443.69,159.89 C 444.01,160.28 444.2,160.72 444.26,161.22 C 442.83,162.47 441.46,163.78 440.16,165.16 C 439.76,165.07 439.51,164.82 439.42,164.41 C 439.27,163.79 439.19,163.17 439.16,162.54 C 439.42,161.95 439.65,161.35 439.85,160.75 C 439.37,160.56 438.88,160.57 438.37,160.76 C 435.73,159.5 434.29,157.4 434.05,154.48 C 432.68,152.51 431.82,150.35 431.46,147.99 C 430.35,147.42 429.54,146.58 429.02,145.47 C 428.94,143.12 428.74,140.8 428.44,138.5 C 428.97,137.22 429.13,135.9 428.91,134.54 C 428.05,132.27 427.74,129.92 427.95,127.5 C 427.76,126.78 427.53,126.08 427.26,125.38 C 427.45,124.74 427.69,124.12 427.99,123.52 C 428.23,123.09 428.57,122.97 429.01,123.16 Z"/></g>
<g><path fill="#ecbd76" fill-opacity="0.996" stroke="#ecbd76" stroke-width="0.5" stroke-opacity="0.996" d="M 443.74,115.99 C 444.49,116.04 445.25,116.08 446.01,116.1 C 446.53,116.26 446.68,116.58 446.46,117.05 C 445.79,117.43 445.12,117.8 444.44,118.18 C 443.99,119.14 443.63,120.13 443.38,121.13 C 443.82,121.51 444.21,121.94 444.55,122.4 C 445.4,126.08 446.33,129.74 447.33,133.39 C 448.22,138.29 449.18,143.17 450.24,148.02 C 450.66,148.92 451.16,149.77 451.71,150.56 C 452.71,150.46 453.62,150.73 454.44,151.35 C 452.38,153.41 450.32,155.45 448.26,157.49 C 448.43,156.54 448.21,155.7 447.59,154.99 C 446.99,155.24 446.39,155.38 445.77,155.41 C 443.73,153.57 442.48,151.28 442.02,148.55 C 441.2,141.62 440.18,134.72 438.97,127.84 C 438.81,126.38 438.81,124.91 438.97,123.45 C 439.13,122.11 439.39,120.8 439.75,119.52 C 439.64,119.03 439.34,118.78 438.85,118.76 C 440.29,117.48 441.92,116.55 443.74,115.99 Z"/></g>
<g><path fill="#e1ad5d" stroke="#e1ad5d" stroke-width="0.5" d="M 445.81,114.89 C 446.07,114.9 446.33,114.92 446.6,114.94 C 448.41,114.98 450.22,115.02 452.03,115.04 C 452.58,115.09 453.13,115.08 453.68,115 C 453.78,115.58 453.91,116.15 454.07,116.71 C 451.58,116.85 451.44,117.48 453.65,118.6 C 453.23,118.9 452.8,119.19 452.36,119.47 C 452.88,119.71 453.33,120.03 453.73,120.42 C 453.33,121.08 453.3,121.75 453.62,122.45 C 453.1,122.84 452.59,123.24 452.06,123.65 C 451.8,124.93 452.29,125.86 453.54,126.42 C 453.06,127.77 453.07,129.14 453.55,130.52 C 454.61,134.58 455.69,138.63 456.79,142.66 C 456.98,143.35 457.42,143.62 458.09,143.45 C 458.86,142.71 459.68,142.03 460.57,141.43 C 460.2,142.27 460.02,143.15 460.02,144.06 C 458.57,146.8 456.71,149.23 454.44,151.35 C 453.62,150.73 452.71,150.46 451.71,150.56 C 451.16,149.77 450.66,148.92 450.24,148.02 C 449.18,143.17 448.22,138.29 447.33,133.39 C 446.33,129.74 445.4,126.08 444.55,122.4 C 444.21,121.94 443.82,121.51 443.38,121.13 C 443.63,120.13 443.99,119.14 444.44,118.18 C 445.12,117.8 445.79,117.43 446.46,117.05 C 446.68,116.58 446.53,116.26 446.01,116.1 C 445.94,115.7 445.88,115.29 445.81,114.89 Z"/></g>
<g><path fill="#e2af60" fill-opacity="0.996" stroke="#e2af60" stroke-width="0.5" stroke-opacity="0.996" d="M 411.15,114.65 C 411.61,114.88 412.1,115 412.62,115.03 C 413.75,114.99 414.88,114.98 416.01,115 C 416.1,115.39 416.19,115.78 416.29,116.17 C 415.75,117.4 415.79,118.59 416.4,119.74 C 418.05,118.66 419.45,118.92 420.6,120.54 C 419.99,120.82 419.37,121.05 418.72,121.23 C 418.18,121.47 417.91,121.89 417.9,122.49 C 418.02,123.18 418.22,123.86 418.49,124.5 C 418.04,125.09 417.87,125.74 417.96,126.47 C 418.26,127.48 418.6,128.47 419,129.45 C 418.57,130.39 418.29,131.36 418.15,132.37 C 418.76,132.77 419.37,133.19 419.98,133.61 C 420.01,133.88 420.03,134.16 420.06,134.44 C 419.51,135.15 418.94,135.84 418.36,136.51 C 418.57,137.33 418.96,138.06 419.52,138.71 C 419.67,140.91 420.39,142.89 421.7,144.64 C 421.71,145.93 421.77,147.22 421.9,148.5 C 422.49,149.28 423.12,150.03 423.79,150.76 C 423.97,151.81 423.72,152.76 423.03,153.6 C 423.56,154.98 424.1,156.36 424.66,157.75 C 424.51,158.63 424.38,159.51 424.27,160.39 C 424.44,160.77 424.68,161.1 424.97,161.39 C 425.92,161.75 426.84,162.13 427.73,162.54 C 426.63,163.68 425.52,164.82 424.39,165.96 C 420.98,162.55 417.41,159.32 413.67,156.28 C 413.64,155.49 413.94,154.84 414.56,154.35 C 415.16,154.71 415.8,154.97 416.48,155.12 C 417.67,154.95 417.92,154.37 417.25,153.38 C 417.34,153.28 417.43,153.18 417.53,153.08 C 418.23,153.17 418.9,153.36 419.55,153.65 C 419.86,153.4 419.96,153.08 419.85,152.67 C 418.27,148.4 416.83,144.07 415.52,139.7 C 415.11,138.96 414.68,138.23 414.24,137.53 C 414.36,137.16 414.46,136.79 414.54,136.41 C 414.16,131.91 413.64,127.43 412.98,122.97 C 412.16,121.66 411.25,120.42 410.24,119.23 C 409.06,118.5 407.87,117.82 406.67,117.17 C 407.32,116.94 407.86,116.54 408.27,115.99 C 408.56,116.05 408.84,116.11 409.13,116.17 C 410.07,116.03 410.74,115.52 411.15,114.65 Z"/></g>
<g><path fill="#e8b76d" fill-opacity="0.992" d="M 416.29,116.17 C 417.28,116.54 418.29,116.86 419.32,117.12 C 420.12,117.74 421,118.23 421.95,118.58 C 422.73,119.33 423.02,120.23 422.83,121.29 C 421.77,122.88 421.49,124.6 421.97,126.46 C 422.39,127.07 422.72,127.73 422.97,128.42 C 422.64,129.1 422.37,129.79 422.15,130.5 C 422.26,131.79 422.26,133.08 422.17,134.36 C 422.42,134.76 422.61,135.18 422.75,135.63 C 422.79,137.15 422.69,138.66 422.46,140.14 C 422.85,140.7 423.27,141.24 423.74,141.74 C 424.16,143.51 424.86,145.16 425.85,146.69 C 425.86,147.64 425.83,148.6 425.75,149.56 C 425.8,150.32 426.08,150.99 426.58,151.56 C 425.06,152.23 424.78,153.26 425.73,154.66 C 426.51,154.59 427.26,154.6 428,154.71 C 428.04,156.26 428.08,157.82 428.11,159.38 C 428.43,160.06 428.74,160.75 429.04,161.44 C 429.61,161.84 430.2,162.22 430.8,162.56 C 430.49,163.18 430.21,163.82 429.97,164.48 C 430.08,164.58 430.2,164.67 430.32,164.76 C 431.83,163.68 433.08,163.95 434.05,165.59 C 434.13,166.14 433.97,166.6 433.56,166.97 C 432.75,167.78 432.01,168.64 431.31,169.54 C 432.17,170.13 433,170.76 433.8,171.45 C 433.37,172.17 432.73,172.47 431.87,172.35 C 429.33,170.28 426.84,168.15 424.39,165.96 C 425.52,164.82 426.63,163.68 427.73,162.54 C 426.84,162.13 425.92,161.75 424.97,161.39 C 424.68,161.1 424.44,160.77 424.27,160.39 C 424.38,159.51 424.51,158.63 424.66,157.75 C 424.1,156.36 423.56,154.98 423.03,153.6 C 423.72,152.76 423.97,151.81 423.79,150.76 C 423.12,150.03 422.49,149.28 421.9,148.5 C 421.77,147.22 421.71,145.93 421.7,144.64 C 420.39,142.89 419.67,140.91 419.52,138.71 C 418.96,138.06 418.57,137.33 418.36,136.51 C 418.94,135.84 419.51,135.15 420.06,134.44 C 420.03,134.16 420.01,133.88 419.98,133.61 C 419.37,133.19 418.76,132.77 418.15,132.37 C 418.29,131.36 418.57,130.39 419,129.45 C 418.6,128.47 418.26,127.48 417.96,126.47 C 417.87,125.74 418.04,125.09 418.49,124.5 C 418.22,123.86 418.02,123.18 417.9,122.49 C 417.91,121.89 418.18,121.47 418.72,121.23 C 419.37,121.05 419.99,120.82 420.6,120.54 C 419.45,118.92 418.05,118.66 416.4,119.74 C 415.79,118.59 415.75,117.4 416.29,116.17 Z"/></g>
<g><path fill="#f3ca86" fill-opacity="0.996" d="M 425.34,118.59 C 426.82,119.91 428.04,121.44 429.01,123.16 C 428.57,122.97 428.23,123.09 427.99,123.52 C 427.69,124.12 427.45,124.74 427.26,125.38 C 427.53,126.08 427.76,126.78 427.95,127.5 C 427.74,129.92 428.05,132.27 428.91,134.54 C 429.13,135.9 428.97,137.22 428.44,138.5 C 428.74,140.8 428.94,143.12 429.02,145.47 C 429.54,146.58 430.35,147.42 431.46,147.99 C 431.82,150.35 432.68,152.51 434.05,154.48 C 434.29,157.4 435.73,159.5 438.37,160.76 C 438.88,160.57 439.37,160.56 439.85,160.75 C 439.65,161.35 439.42,161.95 439.16,162.54 C 439.19,163.17 439.27,163.79 439.42,164.41 C 439.51,164.82 439.76,165.07 440.16,165.16 C 439.83,165.51 439.5,165.86 439.18,166.21 C 438.97,166.17 438.76,166.12 438.55,166.08 C 438.1,165.43 437.68,164.75 437.3,164.05 C 436.02,162.83 434.72,161.64 433.38,160.47 C 433.83,160.2 434.24,159.88 434.6,159.51 C 433.63,159.07 432.59,158.9 431.49,159.01 C 431.32,158.84 431.16,158.67 431,158.5 C 430.76,156.54 430.72,154.57 430.87,152.6 C 430.26,151.85 429.57,151.15 428.82,150.53 C 428.71,149.58 428.65,148.63 428.66,147.68 C 428.2,146.73 427.84,145.75 427.58,144.73 C 427.02,143.98 426.46,143.23 425.9,142.49 C 425.79,141.33 425.37,140.3 424.64,139.39 C 424.61,139.11 424.58,138.82 424.55,138.53 C 425.37,137.67 425.8,136.65 425.86,135.47 C 425.8,134.1 425.54,132.76 425.08,131.46 C 425.22,130.74 425.43,130.03 425.73,129.35 C 425.54,128.05 425.59,126.75 425.86,125.46 C 425.64,124.75 425.3,124.08 424.86,123.47 C 424.35,121.77 424.51,120.14 425.34,118.59 Z"/></g>
<g><path fill="#edc17b" fill-opacity="0.992" d="M 416.01,115 C 416.34,115 416.68,115.01 417.02,115.01 C 417.79,114.85 418.55,114.88 419.3,115.09 C 421.5,115.95 423.51,117.12 425.34,118.59 C 424.51,120.14 424.35,121.77 424.86,123.47 C 425.3,124.08 425.64,124.75 425.86,125.46 C 425.59,126.75 425.54,128.05 425.73,129.35 C 425.43,130.03 425.22,130.74 425.08,131.46 C 425.54,132.76 425.8,134.1 425.86,135.47 C 425.8,136.65 425.37,137.67 424.55,138.53 C 424.58,138.82 424.61,139.11 424.64,139.39 C 425.37,140.3 425.79,141.33 425.9,142.49 C 426.46,143.23 427.02,143.98 427.58,144.73 C 427.84,145.75 428.2,146.73 428.66,147.68 C 428.65,148.63 428.71,149.58 428.82,150.53 C 429.57,151.15 430.26,151.85 430.87,152.6 C 430.72,154.57 430.76,156.54 431,158.5 C 431.16,158.67 431.32,158.84 431.49,159.01 C 432.59,158.9 433.63,159.07 434.6,159.51 C 434.24,159.88 433.83,160.2 433.38,160.47 C 434.72,161.64 436.02,162.83 437.3,164.05 C 437.68,164.75 438.1,165.43 438.55,166.08 C 438.76,166.12 438.97,166.17 439.18,166.21 C 437.56,168.14 435.77,169.89 433.8,171.45 C 433,170.76 432.17,170.13 431.31,169.54 C 432.01,168.64 432.75,167.78 433.56,166.97 C 433.97,166.6 434.13,166.14 434.05,165.59 C 433.08,163.95 431.83,163.68 430.32,164.76 C 430.2,164.67 430.08,164.58 429.97,164.48 C 430.21,163.82 430.49,163.18 430.8,162.56 C 430.2,162.22 429.61,161.84 429.04,161.44 C 428.74,160.75 428.43,160.06 428.11,159.38 C 428.08,157.82 428.04,156.26 428,154.71 C 427.26,154.6 426.51,154.59 425.73,154.66 C 424.78,153.26 425.06,152.23 426.58,151.56 C 426.08,150.99 425.8,150.32 425.75,149.56 C 425.83,148.6 425.86,147.64 425.85,146.69 C 424.86,145.16 424.16,143.51 423.74,141.74 C 423.27,141.24 422.85,140.7 422.46,140.14 C 422.69,138.66 422.79,137.15 422.75,135.63 C 422.61,135.18 422.42,134.76 422.17,134.36 C 422.26,133.08 422.26,131.79 422.15,130.5 C 422.37,129.79 422.64,129.1 422.97,128.42 C 422.72,127.73 422.39,127.07 421.97,126.46 C 421.49,124.6 421.77,122.88 422.83,121.29 C 423.02,120.23 422.73,119.33 421.95,118.58 C 421,118.23 420.12,117.74 419.32,117.12 C 418.29,116.86 417.28,116.54 416.29,116.17 C 416.19,115.78 416.1,115.39 416.01,115 Z"/></g>
<g><path fill="#f3cb8b" fill-opacity="0.988" d="M 438.85,118.76 C 439.34,118.78 439.64,119.03 439.75,119.52 C 439.39,120.8 439.13,122.11 438.97,123.45 C 438.81,124.91 438.81,126.38 438.97,127.84 C 440.18,134.72 441.2,141.62 442.02,148.55 C 442.48,151.28 443.73,153.57 445.77,155.41 C 446.39,155.38 446.99,155.24 447.59,154.99 C 448.21,155.7 448.43,156.54 448.26,157.49 C 446.94,158.75 445.61,160 444.26,161.22 C 444.2,160.72 444.01,160.28 443.69,159.89 C 442.96,159.21 442.14,158.67 441.22,158.28 C 440.45,157.66 440.19,156.9 440.45,156.01 C 441.12,155.2 441.69,154.35 442.18,153.44 C 441.57,152.94 440.88,152.55 440.12,152.27 C 440.07,152.04 440.01,151.81 439.96,151.58 C 440.47,150.62 440.84,149.62 441.08,148.57 C 440.77,147.85 440.42,147.15 440.04,146.47 C 439.43,145.85 438.87,145.21 438.34,144.54 C 439.31,143.72 439.67,142.71 439.41,141.5 C 438.34,140.66 437.58,139.61 437.13,138.34 C 437.19,137.1 437.19,135.87 437.13,134.65 C 436.63,134.46 436.11,134.46 435.59,134.65 C 434.71,134.2 434.46,133.5 434.84,132.57 C 435.51,132.09 436.22,131.68 436.96,131.34 C 437.27,130.35 437.11,129.44 436.49,128.59 C 437.75,127.13 437.77,125.69 436.53,124.26 C 435.74,124.53 434.96,124.81 434.17,125.09 C 435.27,122.64 436.83,120.53 438.85,118.76 Z"/></g>
<g><path fill="#e2b874" fill-opacity="0.969" stroke="#e2b874" stroke-width="0.5" stroke-opacity="0.969" d="M 483.99,143.01 C 484.84,140.26 486.64,139.3 489.39,140.13 C 492.18,141.96 492.4,144.07 490.06,146.46 C 488.94,147.02 487.75,147.2 486.5,147 C 484.42,146.52 483.59,145.19 483.99,143.01 Z"/></g>
<g><path fill="#e0bb79" fill-opacity="0.969" stroke="#e0bb79" stroke-width="0.5" stroke-opacity="0.969" d="M 372.04,143 C 372.65,140.74 374.13,139.66 376.49,139.76 C 378.45,140.24 379.56,141.49 379.84,143.5 C 378.79,147.18 376.55,148.15 373.15,146.41 C 372.48,145.36 372.11,144.23 372.04,143 Z"/></g>
<g><path fill="#cfad6d" fill-opacity="0.878" d="M 463.37,127.03 C 463.56,127.1 463.76,127.17 463.96,127.25 C 464.58,131.17 464.25,135.01 462.99,138.76 C 462.4,139.12 462.12,139.64 462.14,140.34 C 461.6,141.68 460.89,142.91 460.02,144.06 C 460.02,143.15 460.2,142.27 460.57,141.43 C 461.57,138.9 462.42,136.26 463.13,133.51 C 463.35,131.36 463.43,129.19 463.37,127.03 Z"/></g>
<g><path fill="#dbb77f" fill-opacity="0.773" d="M 402.89,120.82 C 403.1,121.32 403.16,121.85 403.08,122.39 C 402.62,123.88 401.98,125.28 401.15,126.6 C 400.54,129.64 400.45,132.69 400.88,135.76 C 400.67,135.82 400.47,135.88 400.27,135.94 C 399.82,132.81 399.79,129.67 400.19,126.53 C 400.76,124.47 401.66,122.57 402.89,120.82 Z"/></g>
<g><path fill="#dba54f" fill-opacity="0.996" stroke="#dba54f" stroke-width="0.5" stroke-opacity="0.996" d="M 406.67,117.17 C 407.87,117.82 409.06,118.5 410.24,119.23 C 411.25,120.42 412.16,121.66 412.98,122.97 C 413.64,127.43 414.16,131.91 414.54,136.41 C 414.46,136.79 414.36,137.16 414.24,137.53 C 414.68,138.23 415.11,138.96 415.52,139.7 C 416.83,144.07 418.27,148.4 419.85,152.67 C 419.96,153.08 419.86,153.4 419.55,153.65 C 418.9,153.36 418.23,153.17 417.53,153.08 C 417.43,153.18 417.34,153.28 417.25,153.38 C 417.92,154.37 417.67,154.95 416.48,155.12 C 415.8,154.97 415.16,154.71 414.56,154.35 C 413.94,154.84 413.64,155.49 413.67,156.28 C 410.59,153.47 407.86,150.37 405.46,146.96 C 403.76,144.99 402.63,142.74 402.09,140.22 C 401.91,139.63 401.6,139.12 401.16,138.7 C 401.13,138.51 401.09,138.31 401.05,138.12 C 400.98,137.34 400.93,136.55 400.88,135.76 C 400.45,132.69 400.54,129.64 401.15,126.6 C 401.98,125.28 402.62,123.88 403.08,122.39 C 403.16,121.85 403.1,121.32 402.89,120.82 C 403.5,119.67 404.3,118.67 405.3,117.83 C 405.69,117.47 406.14,117.25 406.67,117.17 Z"/></g>
<g><path fill="#dcba8a" fill-opacity="0.78" d="M 453.68,115 C 455.83,115.33 457.67,116.27 459.21,117.85 C 458.67,117.93 458.13,117.93 457.58,117.87 C 456.43,117.39 455.26,117 454.07,116.71 C 453.91,116.15 453.78,115.58 453.68,115 Z"/></g>
<g><path fill="#feebc3" fill-opacity="0.22" d="M 452.03,115.04 C 450.22,115.02 448.41,114.98 446.6,114.94 C 446.78,114.52 447.09,114.24 447.53,114.12 C 448.83,113.87 450.13,113.88 451.42,114.15 C 451.79,114.34 451.99,114.64 452.03,115.04 Z"/></g>
<g><path fill="#eace9b" fill-opacity="0.502" d="M 462.64,122.8 C 463.19,122.8 463.6,123.05 463.87,123.53 C 464.03,124.76 464.06,126 463.96,127.25 C 463.76,127.17 463.56,127.1 463.37,127.03 C 463.13,125.62 462.89,124.21 462.64,122.8 Z"/></g>
<g><path fill="#d7a049" stroke="#d7a049" stroke-width="0.5" d="M 454.07,116.71 C 455.26,117 456.43,117.39 457.58,117.87 C 458.13,117.93 458.67,117.93 459.21,117.85 C 460.07,118.14 460.65,118.72 460.97,119.58 C 461.05,120.32 461.42,120.87 462.07,121.23 C 462.38,121.73 462.57,122.25 462.64,122.8 C 462.89,124.21 463.13,125.62 463.37,127.03 C 463.43,129.19 463.35,131.36 463.13,133.51 C 462.42,136.26 461.57,138.9 460.57,141.43 C 459.68,142.03 458.86,142.71 458.09,143.45 C 457.42,143.62 456.98,143.35 456.79,142.66 C 455.69,138.63 454.61,134.58 453.55,130.52 C 453.07,129.14 453.06,127.77 453.54,126.42 C 452.29,125.86 451.8,124.93 452.06,123.65 C 452.59,123.24 453.1,122.84 453.62,122.45 C 453.3,121.75 453.33,121.08 453.73,120.42 C 453.33,120.03 452.88,119.71 452.36,119.47 C 452.8,119.19 453.23,118.9 453.65,118.6 C 451.44,117.48 451.58,116.85 454.07,116.71 Z"/></g>
<g><path fill="#fbeac1" fill-opacity="0.259" d="M 417.02,115.01 C 416.68,115.01 416.34,115 416.01,115 C 414.88,114.98 413.75,114.99 412.62,115.03 C 412.99,114.26 413.61,113.9 414.48,113.92 C 415.14,113.87 415.8,113.92 416.45,114.07 C 416.88,114.25 417.07,114.56 417.02,115.01 Z"/></g>
<g><path fill="#fadeb7" fill-opacity="0.298" d="M 400.27,135.94 C 400.47,135.88 400.67,135.82 400.88,135.76 C 400.93,136.55 400.98,137.34 401.05,138.12 C 400.59,138.13 400.29,137.91 400.14,137.45 C 400.03,136.94 400.07,136.43 400.27,135.94 Z"/></g>
<g><path fill="#e9cfa8" fill-opacity="0.604" d="M 445.81,114.89 C 445.88,115.29 445.94,115.7 446.01,116.1 C 445.25,116.08 444.49,116.04 443.74,115.99 C 444.27,115.33 444.96,114.96 445.81,114.89 Z"/></g>
<g><path fill="#eccfad" fill-opacity="0.557" d="M 411.15,114.65 C 410.74,115.52 410.07,116.03 409.13,116.17 C 409.48,115.29 410.15,114.78 411.15,114.65 Z"/></g>
<g><path fill="#f8dcb6" fill-opacity="0.4" d="M 401.16,138.7 C 401.6,139.12 401.91,139.63 402.09,140.22 C 401.5,139.9 401.19,139.39 401.16,138.7 Z"/></g>
<g><path fill="#eed6b2" fill-opacity="0.416" d="M 462.99,138.76 C 462.92,139.41 462.63,139.94 462.14,140.34 C 462.12,139.64 462.4,139.12 462.99,138.76 Z"/></g>
<g><path fill="#ffddb7" fill-opacity="0.322" d="M 408.27,115.99 C 407.86,116.54 407.32,116.94 406.67,117.17 C 406.97,116.49 407.51,116.09 408.27,115.99 Z"/></g>
<g><path fill="#d6d8c8" fill-opacity="0.435" d="M 496.07,143.23 C 495.98,143.56 495.89,143.89 495.8,144.22 C 495.35,143.7 495.44,143.37 496.07,143.23 Z"/></g>
<g><path fill="#ecd6ad" fill-opacity="0.416" d="M 460.97,119.58 C 461.59,119.95 461.95,120.51 462.07,121.23 C 461.42,120.87 461.05,120.32 460.97,119.58 Z"/></g>
</svg>
