<?xml version="1.0" encoding="UTF-8"?>
<!DOCTYPE svg PUBLIC "-//W3C//DTD SVG 1.1//EN" "http://www.w3.org/Graphics/SVG/1.1/DTD/svg11.dtd">
<svg xmlns="http://www.w3.org/2000/svg" version="1.1" width="866px" height="288px" style="shape-rendering:geometricPrecision; text-rendering:geometricPrecision; image-rendering:optimizeQuality; fill-rule:evenodd; clip-rule:evenodd" xmlns:xlink="http://www.w3.org/1999/xlink">
<g><path fill="#dba652" fill-opacity="0.996" stroke="#dba652" stroke-width="0.5" stroke-opacity="0.996" d="M 423.18,109.51 C 422.43,109.72 422.07,110.23 422.1,111.03 C 422.08,111.41 421.88,111.64 421.51,111.7 C 420.49,111.04 419.79,111.31 419.4,112.49 C 420.36,112.92 421.12,113.58 421.68,114.45 C 419.37,116.02 417.66,118.09 416.55,120.66 C 416.28,120.51 416,120.41 415.7,120.35 C 412.71,121.71 411.51,124.02 412.11,127.27 C 412.88,127.56 413.68,127.77 414.5,127.91 C 414.59,128.06 414.69,128.21 414.78,128.37 C 413.47,129.52 412.44,130.89 411.71,132.49 C 411.05,134.1 410.74,135.78 410.77,137.52 C 410.72,138.07 410.91,138.5 411.33,138.82 C 412,138.49 412.7,138.28 413.43,138.17 C 413.85,138.41 414.11,138.78 414.2,139.27 C 414.1,141.53 414.12,143.79 414.25,146.06 C 414.38,148.19 414.77,150.27 415.41,152.3 C 415.45,152.89 415.34,153.45 415.1,154 C 414.88,154.69 414.8,155.4 414.86,156.13 C 410.01,151.75 405.7,146.89 401.94,141.54 C 397.57,135.15 395.92,128.14 396.98,120.5 C 399.03,111.07 404.87,106.38 414.49,106.41 C 417.64,106.74 420.53,107.78 423.18,109.51 Z"/></g>
<g><path fill="#eec27b" fill-opacity="0.996" stroke="#eec27b" stroke-width="0.5" stroke-opacity="0.996" d="M 442.82,109.56 C 443.23,109.8 443.54,110.14 443.76,110.57 C 444.49,112.79 444.99,115.03 445.26,117.29 C 445.57,117.69 445.96,118 446.42,118.19 C 447.99,118.36 449.45,118.85 450.82,119.68 C 451.46,120.7 452.19,121.64 453.03,122.52 C 453.6,123.5 453.95,124.57 454.07,125.71 C 454.13,126.37 453.95,126.96 453.51,127.48 C 453.87,127.76 454.17,128.09 454.4,128.48 C 453.93,129.07 453.44,129.65 452.93,130.22 C 452.96,132.06 452.86,133.9 452.64,135.73 C 452.14,139.17 450.68,142.12 448.26,144.59 C 447.19,145.45 446.21,146.4 445.32,147.43 C 445.75,147.82 446.2,148.2 446.66,148.56 C 444.8,150.88 442.87,153.14 440.86,155.35 C 440.35,155.59 439.84,155.56 439.32,155.26 C 439.13,156.02 439.26,156.76 439.7,157.49 C 439.11,158.13 438.39,158.36 437.51,158.19 C 436.51,157.74 435.5,157.35 434.46,157.01 C 433.98,156.91 433.57,157.03 433.24,157.35 C 433.59,158.02 433.83,158.73 433.96,159.47 C 433.41,159.91 432.81,160.28 432.16,160.59 C 432.05,161.04 431.84,161.43 431.51,161.77 C 429.13,160.01 426.74,158.27 424.33,156.55 C 424.72,156.29 425.03,155.98 425.25,155.61 C 423.04,153.16 422.55,150.39 423.77,147.32 C 423.29,147.01 422.81,146.69 422.33,146.37 C 421.18,144.39 420.09,142.37 419.07,140.33 C 418,136.56 418.19,132.85 419.64,129.19 C 420.68,127.32 421.55,125.36 422.24,123.32 C 423.13,121.64 424.24,120.12 425.57,118.76 C 426.24,118.75 426.92,118.68 427.61,118.55 C 427.31,118.01 426.94,117.53 426.5,117.1 C 426.29,116.73 426.28,116.34 426.46,115.95 C 426.96,115.28 427.63,114.89 428.47,114.78 C 429.45,116.1 430.28,117.51 430.97,119.01 C 430.59,118.85 430.24,118.91 429.91,119.17 C 429.29,120.4 428.69,121.64 428.12,122.89 C 426.44,124.55 425.08,126.43 424.02,128.55 C 422.68,131.19 422.12,134 422.35,136.95 C 422.61,138.74 423.05,140.5 423.65,142.23 C 424.42,143.91 425.23,145.56 426.09,147.19 C 427.57,149.05 429.46,150.35 431.75,151.07 C 434.8,151.96 437.85,151.9 440.88,150.89 C 440.84,150.43 440.66,150 440.33,149.6 C 441.59,148.62 442.65,147.45 443.52,146.07 C 446.01,141.73 447.66,137.07 448.46,132.11 C 449.05,129.56 449.36,126.97 449.41,124.36 C 449.42,123.79 449.18,123.39 448.68,123.17 C 448.14,123.46 447.58,123.58 446.99,123.54 C 446.6,122.84 446.3,122.09 446.1,121.29 C 445.92,121.2 445.74,121.11 445.55,121.02 C 445.07,121.43 444.73,121.96 444.55,122.58 C 443.18,121.69 441.74,120.91 440.23,120.24 C 440.53,119.86 440.91,119.53 441.35,119.25 C 442.09,116.63 441.33,114.55 439.07,113.01 C 440.2,111.72 441.45,110.57 442.82,109.56 Z"/></g>
<g><path fill="#e1af5e" fill-opacity="0.992" stroke="#e1af5e" stroke-width="0.5" stroke-opacity="0.992" d="M 462.1,108.92 C 462.04,109.34 461.81,109.65 461.42,109.84 C 460.32,109.99 459.34,110.4 458.48,111.06 C 458.5,111.79 458.58,112.52 458.74,113.25 C 457.84,114.41 457.91,115.5 458.94,116.5 C 459.6,116.84 460.21,117.25 460.77,117.74 C 460.51,118.58 460.33,119.43 460.21,120.3 C 460.68,121.12 461.2,121.9 461.78,122.64 C 461.57,125.08 462.03,127.37 463.16,129.52 C 462.71,130.13 462.33,130.79 462.04,131.48 C 463.1,132 464.12,132.62 465.08,133.35 C 465.92,134.45 466.26,135.68 466.1,137.05 C 463.88,141.05 461.25,144.76 458.2,148.17 C 457.18,147.54 456.14,146.92 455.09,146.31 C 454.83,145.36 454.76,144.39 454.89,143.4 C 454.86,142.93 455,142.53 455.31,142.2 C 455.61,142.78 455.99,143.3 456.43,143.75 C 456.86,141.7 457.25,139.62 457.6,137.5 C 457.41,136.84 457.43,136.18 457.67,135.53 C 457.33,134.07 456.89,132.65 456.34,131.26 C 456.95,130.08 457.22,128.83 457.18,127.49 C 456.46,125.59 455.48,123.84 454.26,122.23 C 454.24,121.13 454.32,120.05 454.49,118.99 C 453.87,118.29 453.22,117.63 452.54,116.99 C 452.14,116.08 451.63,115.23 451.02,114.44 C 449.86,114.01 448.73,113.55 447.62,113.06 C 447.35,112.11 446.94,111.22 446.4,110.39 C 446.76,109.89 446.76,109.43 446.39,109 C 445.57,108.71 444.74,108.66 443.89,108.86 C 449.99,105.46 456.05,105.48 462.1,108.92 Z"/></g>
<g><path fill="#e8b86e" fill-opacity="0.996" stroke="#e8b86e" stroke-width="0.5" stroke-opacity="0.996" d="M 443.89,108.86 C 444.74,108.66 445.57,108.71 446.39,109 C 446.76,109.43 446.76,109.89 446.4,110.39 C 446.94,111.22 447.35,112.11 447.62,113.06 C 448.73,113.55 449.86,114.01 451.02,114.44 C 451.63,115.23 452.14,116.08 452.54,116.99 C 453.22,117.63 453.87,118.29 454.49,118.99 C 454.32,120.05 454.24,121.13 454.26,122.23 C 455.48,123.84 456.46,125.59 457.18,127.49 C 457.22,128.83 456.95,130.08 456.34,131.26 C 456.89,132.65 457.33,134.07 457.67,135.53 C 457.43,136.18 457.41,136.84 457.6,137.5 C 457.25,139.62 456.86,141.7 456.43,143.75 C 455.99,143.3 455.61,142.78 455.31,142.2 C 455,142.53 454.86,142.93 454.89,143.4 C 454.76,144.39 454.83,145.36 455.09,146.31 C 456.14,146.92 457.18,147.54 458.2,148.17 C 454.57,152.05 450.82,155.8 446.94,159.44 C 442.46,163.64 437.94,167.79 433.39,171.88 C 432.85,171.99 432.37,171.87 431.95,171.52 C 426.28,166.36 420.58,161.23 414.86,156.13 C 414.8,155.4 414.88,154.69 415.1,154 C 415.55,154.13 416,154.11 416.44,153.95 C 416.86,153.44 417.22,152.9 417.51,152.31 C 417.94,152.66 418.29,153.08 418.58,153.57 C 419.39,153.32 419.75,152.76 419.65,151.89 C 419.33,149.82 418.58,147.93 417.39,146.22 C 417.53,145.11 417.68,144.01 417.82,142.92 C 417.15,141.97 416.76,140.92 416.67,139.75 C 416.17,139.27 415.66,138.8 415.13,138.33 C 415.07,138.05 415.01,137.76 414.94,137.47 C 415.16,136.41 415.56,135.42 416.16,134.51 C 416.08,132.91 416.09,131.32 416.18,129.74 C 416.96,129.54 417.75,129.35 418.54,129.16 C 419.06,128.75 419.23,128.23 419.05,127.6 C 418.19,127.08 417.27,126.7 416.29,126.47 C 416.59,125.94 416.97,125.47 417.43,125.06 C 418.1,123.81 417.76,122.97 416.4,122.52 C 417.3,121.87 418.08,121.1 418.74,120.22 C 419.7,120.23 420.62,120.45 421.49,120.87 C 421.76,120.16 421.96,119.42 422.1,118.66 C 423.01,118.02 423.86,117.32 424.66,116.58 C 424.17,115.18 423.69,113.78 423.21,112.38 C 423,111.79 422.63,111.34 422.1,111.03 C 422.07,110.23 422.43,109.72 423.18,109.51 C 425.22,110.99 426.98,112.74 428.47,114.78 C 427.63,114.89 426.96,115.28 426.46,115.95 C 426.28,116.34 426.29,116.73 426.5,117.1 C 426.94,117.53 427.31,118.01 427.61,118.55 C 426.92,118.68 426.24,118.75 425.57,118.76 C 424.24,120.12 423.13,121.64 422.24,123.32 C 421.55,125.36 420.68,127.32 419.64,129.19 C 418.19,132.85 418,136.56 419.07,140.33 C 420.09,142.37 421.18,144.39 422.33,146.37 C 422.81,146.69 423.29,147.01 423.77,147.32 C 422.55,150.39 423.04,153.16 425.25,155.61 C 425.03,155.98 424.72,156.29 424.33,156.55 C 426.74,158.27 429.13,160.01 431.51,161.77 C 431.84,161.43 432.05,161.04 432.16,160.59 C 432.81,160.28 433.41,159.91 433.96,159.47 C 433.83,158.73 433.59,158.02 433.24,157.35 C 433.57,157.03 433.98,156.91 434.46,157.01 C 435.5,157.35 436.51,157.74 437.51,158.19 C 438.39,158.36 439.11,158.13 439.7,157.49 C 439.26,156.76 439.13,156.02 439.32,155.26 C 439.84,155.56 440.35,155.59 440.86,155.35 C 442.87,153.14 444.8,150.88 446.66,148.56 C 446.2,148.2 445.75,147.82 445.32,147.43 C 446.21,146.4 447.19,145.45 448.26,144.59 C 450.68,142.12 452.14,139.17 452.64,135.73 C 452.86,133.9 452.96,132.06 452.93,130.22 C 453.44,129.65 453.93,129.07 454.4,128.48 C 454.17,128.09 453.87,127.76 453.51,127.48 C 453.95,126.96 454.13,126.37 454.07,125.71 C 453.95,124.57 453.6,123.5 453.03,122.52 C 452.19,121.64 451.46,120.7 450.82,119.68 C 449.45,118.85 447.99,118.36 446.42,118.19 C 445.96,118 445.57,117.69 445.26,117.29 C 444.99,115.03 444.49,112.79 443.76,110.57 C 443.54,110.14 443.23,109.8 442.82,109.56 C 443.17,109.32 443.53,109.08 443.89,108.86 Z"/></g>
<g><path fill="#f3cb8a" fill-opacity="0.988" stroke="#f3cb8a" stroke-width="0.5" stroke-opacity="0.988" d="M 439.07,113.01 C 441.33,114.55 442.09,116.63 441.35,119.25 C 440.91,119.53 440.53,119.86 440.23,120.24 C 441.74,120.91 443.18,121.69 444.55,122.58 C 444.73,121.96 445.07,121.43 445.55,121.02 C 445.74,121.11 445.92,121.2 446.1,121.29 C 446.3,122.09 446.6,122.84 446.99,123.54 C 447.58,123.58 448.14,123.46 448.68,123.17 C 449.18,123.39 449.42,123.79 449.41,124.36 C 449.36,126.97 449.05,129.56 448.46,132.11 C 447.66,137.07 446.01,141.73 443.52,146.07 C 442.65,147.45 441.59,148.62 440.33,149.6 C 440.66,150 440.84,150.43 440.88,150.89 C 437.85,151.9 434.8,151.96 431.75,151.07 C 429.46,150.35 427.57,149.05 426.09,147.19 C 425.23,145.56 424.42,143.91 423.65,142.23 C 423.05,140.5 422.61,138.74 422.35,136.95 C 422.12,134 422.68,131.19 424.02,128.55 C 425.08,126.43 426.44,124.55 428.12,122.89 C 428.69,121.64 429.29,120.4 429.91,119.17 C 430.24,118.91 430.59,118.85 430.97,119.01 C 431.45,120.84 432.52,121.35 434.18,120.54 C 435.44,117.78 437.07,115.27 439.07,113.01 Z M 424.01,133.94 C 423.99,136.33 424.58,138.55 425.78,140.6 C 427.89,143.06 430.12,145.38 432.47,147.58 C 433.07,146.42 433.99,145.98 435.22,146.26 C 435.92,147.07 436.43,148 436.76,149.04 C 436.92,149.05 437.09,149.06 437.26,149.07 C 438.02,148 438.91,147.08 439.95,146.29 C 441.79,144.38 442.89,142.12 443.27,139.51 C 443.09,137.99 443.09,136.5 443.29,135.04 C 443.96,135.36 444.66,135.6 445.38,135.77 C 445.51,135.67 445.64,135.58 445.77,135.48 C 445.93,134.17 446,132.86 445.96,131.54 C 445.81,130.15 445.35,128.87 444.6,127.69 C 443.7,126.97 442.94,126.11 442.33,125.13 C 442.17,125.22 442.01,125.31 441.85,125.41 C 441.53,126.47 441.31,127.55 441.19,128.65 C 441.08,129.18 440.8,129.59 440.33,129.87 C 438.89,129.24 437.4,128.62 435.88,128.03 C 435.33,127.56 435.01,126.96 434.93,126.25 C 435.74,125.86 435.93,125.25 435.52,124.43 C 434.73,124.72 433.99,125.1 433.29,125.57 C 433,125.5 432.71,125.43 432.42,125.37 C 432.08,125.96 431.86,126.6 431.76,127.29 C 431.22,127.71 430.72,128.17 430.29,128.68 C 430.32,129.3 430.29,129.91 430.2,130.52 C 429.05,130.31 427.89,130.46 426.74,130.97 C 425.53,131.68 424.62,132.67 424.01,133.94 Z"/></g>
<g><path fill="#f8d396" stroke="#f8d396" stroke-width="0.5" d="M 424.01,133.94 C 424.62,132.67 425.53,131.68 426.74,130.97 C 427.89,130.46 429.05,130.31 430.2,130.52 C 430.29,129.91 430.32,129.3 430.29,128.68 C 430.72,128.17 431.22,127.71 431.76,127.29 C 431.86,126.6 432.08,125.96 432.42,125.37 C 432.71,125.43 433,125.5 433.29,125.57 C 433.99,125.1 434.73,124.72 435.52,124.43 C 435.93,125.25 435.74,125.86 434.93,126.25 C 435.01,126.96 435.33,127.56 435.88,128.03 C 437.4,128.62 438.89,129.24 440.33,129.87 C 440.8,129.59 441.08,129.18 441.19,128.65 C 441.31,127.55 441.53,126.47 441.85,125.41 C 442.01,125.31 442.17,125.22 442.33,125.13 C 442.94,126.11 443.7,126.97 444.6,127.69 C 445.35,128.87 445.81,130.15 445.96,131.54 C 446,132.86 445.93,134.17 445.77,135.48 C 445.64,135.58 445.51,135.67 445.38,135.77 C 444.66,135.6 443.96,135.36 443.29,135.04 C 443.09,136.5 443.09,137.99 443.27,139.51 C 442.89,142.12 441.79,144.38 439.95,146.29 C 438.91,147.08 438.02,148 437.26,149.07 C 437.09,149.06 436.92,149.05 436.76,149.04 C 436.43,148 435.92,147.07 435.22,146.26 C 433.99,145.98 433.07,146.42 432.47,147.58 C 430.12,145.38 427.89,143.06 425.78,140.6 C 424.58,138.55 423.99,136.33 424.01,133.94 Z M 428.01,137.88 C 429.25,139.87 430.62,141.76 432.14,143.55 C 432.93,144.09 433.76,144.11 434.61,143.6 C 437.72,142.29 439.46,139.97 439.85,136.64 C 439.88,135.28 439.89,133.92 439.88,132.57 C 439.76,132.43 439.65,132.29 439.53,132.15 C 437.97,132.14 436.4,132.09 434.83,131.99 C 431.02,132.17 428.75,134.13 428.01,137.88 Z"/></g>
<g><path fill="#d39d4a" fill-opacity="0.965" stroke="#d39d4a" stroke-width="0.5" stroke-opacity="0.965" d="M 545.02,131.98 C 545.03,132.99 545.03,134 545.03,135.01 C 544.65,138.28 543.29,141.1 540.96,143.46 C 537.94,145.97 534.64,148.02 531.05,149.63 C 526.8,151.35 522.49,152.91 518.12,154.3 C 517.28,154.22 516.47,154.06 515.67,153.81 C 515.06,153.37 514.84,152.78 515.01,152.05 C 518.73,150.17 521.71,147.46 523.96,143.94 C 524.48,144.32 524.91,144.77 525.26,145.31 C 524.47,146.75 523.54,148.09 522.47,149.33 C 522.69,149.59 522.97,149.68 523.32,149.58 C 527.82,148.16 531.98,146.07 535.8,143.3 C 536.48,142.33 537.25,141.45 538.11,140.64 C 538.61,139.51 539.16,138.42 539.79,137.35 C 540.07,136.17 539.97,135.03 539.46,133.92 C 538.89,133.03 538.28,132.17 537.63,131.34 C 537.87,131.25 538.11,131.15 538.36,131.06 C 538.9,130.16 539.52,129.32 540.21,128.53 C 540.33,127.59 540.05,126.81 539.38,126.18 C 538.34,125.81 537.39,125.29 536.52,124.62 C 535.87,124.64 535.39,124.94 535.1,125.52 C 534.47,126.78 533.89,128.05 533.34,129.34 C 533.42,130.13 533.63,130.89 533.98,131.61 C 532.17,131.17 530.92,130.09 530.25,128.37 C 530.09,127.79 530.13,127.22 530.36,126.67 C 533.15,123.72 536.47,122.96 540.33,124.38 C 543.31,126.05 544.87,128.58 545.02,131.98 Z"/></g>
<g><path fill="#daa44d" fill-opacity="0.992" stroke="#daa44d" stroke-width="0.5" stroke-opacity="0.992" d="M 462.1,108.92 C 466.34,112.04 468.74,116.23 469.29,121.49 C 469.74,126.98 468.67,132.16 466.1,137.05 C 466.26,135.68 465.92,134.45 465.08,133.35 C 464.12,132.62 463.1,132 462.04,131.48 C 462.33,130.79 462.71,130.13 463.16,129.52 C 462.03,127.37 461.57,125.08 461.78,122.64 C 461.2,121.9 460.68,121.12 460.21,120.3 C 460.33,119.43 460.51,118.58 460.77,117.74 C 460.21,117.25 459.6,116.84 458.94,116.5 C 457.91,115.5 457.84,114.41 458.74,113.25 C 458.58,112.52 458.5,111.79 458.48,111.06 C 459.34,110.4 460.32,109.99 461.42,109.84 C 461.81,109.65 462.04,109.34 462.1,108.92 Z"/></g>
<g><path fill="#e5b365" d="M 422.1,111.03 C 422.63,111.34 423,111.79 423.21,112.38 C 423.69,113.78 424.17,115.18 424.66,116.58 C 423.86,117.32 423.01,118.02 422.1,118.66 C 421.96,119.42 421.76,120.16 421.49,120.87 C 420.62,120.45 419.7,120.23 418.74,120.22 C 418.08,121.1 417.3,121.87 416.4,122.52 C 417.76,122.97 418.1,123.81 417.43,125.06 C 416.97,125.47 416.59,125.94 416.29,126.47 C 417.27,126.7 418.19,127.08 419.05,127.6 C 419.23,128.23 419.06,128.75 418.54,129.16 C 417.75,129.35 416.96,129.54 416.18,129.74 C 416.09,131.32 416.08,132.91 416.16,134.51 C 415.56,135.42 415.16,136.41 414.94,137.47 C 415.01,137.76 415.07,138.05 415.13,138.33 C 415.66,138.8 416.17,139.27 416.67,139.75 C 416.76,140.92 417.15,141.97 417.82,142.92 C 417.68,144.01 417.53,145.11 417.39,146.22 C 418.58,147.93 419.33,149.82 419.65,151.89 C 419.75,152.76 419.39,153.32 418.58,153.57 C 418.29,153.08 417.94,152.66 417.51,152.31 C 417.22,152.9 416.86,153.44 416.44,153.95 C 416,154.11 415.55,154.13 415.1,154 C 415.34,153.45 415.45,152.89 415.41,152.3 C 414.77,150.27 414.38,148.19 414.25,146.06 C 414.12,143.79 414.1,141.53 414.2,139.27 C 414.11,138.78 413.85,138.41 413.43,138.17 C 412.7,138.28 412,138.49 411.33,138.82 C 410.91,138.5 410.72,138.07 410.77,137.52 C 410.74,135.78 411.05,134.1 411.71,132.49 C 412.44,130.89 413.47,129.52 414.78,128.37 C 414.69,128.21 414.59,128.06 414.5,127.91 C 413.68,127.77 412.88,127.56 412.11,127.27 C 411.51,124.02 412.71,121.71 415.7,120.35 C 416,120.41 416.28,120.51 416.55,120.66 C 417.66,118.09 419.37,116.02 421.68,114.45 C 421.12,113.58 420.36,112.92 419.4,112.49 C 419.79,111.31 420.49,111.04 421.51,111.7 C 421.88,111.64 422.08,111.41 422.1,111.03 Z"/></g>
<g><path fill="#dfab58" fill-opacity="0.953" d="M 99.21,142.19 C 99.31,141.27 99.36,140.35 99.35,139.43 C 99.09,137.92 98.18,137.23 96.62,137.35 C 95.97,137.87 95.35,138.43 94.78,139.04 C 94.79,137.55 94.38,136.19 93.55,134.96 C 91.43,133.08 89.05,132.71 86.43,133.85 C 83.5,135.65 81.8,138.26 81.35,141.68 C 80.96,146.51 82.48,150.65 85.91,154.09 C 86.41,155.42 86.41,156.75 85.92,158.1 C 80.87,154.11 78.24,148.91 78.02,142.5 C 78.39,137.66 80.56,133.85 84.52,131.08 C 87.96,129.11 91.47,128.96 95.07,130.63 C 98.68,132.49 100.47,135.44 100.42,139.49 C 100.25,140.5 99.84,141.4 99.21,142.19 Z"/></g>
<g><path fill="#e3ae5c" fill-opacity="0.973" stroke="#e3ae5c" stroke-width="0.5" stroke-opacity="0.973" d="M 626.07,155.89 C 631.79,157.02 636.94,159.4 641.52,163.01 C 645.55,166.55 648.48,170.85 650.29,175.9 C 650.39,176.41 650.31,176.89 650.04,177.34 C 649.27,177.79 648.46,177.88 647.6,177.61 C 647.14,177.29 646.63,177.06 646.09,176.94 C 645.23,174.69 644.22,172.51 643.07,170.41 C 640.33,166.41 636.74,163.41 632.29,161.42 C 630.24,160.61 628.15,159.92 626.02,159.36 C 625.38,159.17 624.73,159.15 624.08,159.28 C 623.74,158.36 623.07,157.87 622.07,157.84 C 621.84,157.33 621.54,156.86 621.16,156.44 C 622.74,155.93 624.38,155.74 626.07,155.89 Z"/></g>
<g><path fill="#cb933c" fill-opacity="0.933" d="M 515.01,152.05 C 514.84,152.78 515.06,153.37 515.67,153.81 C 516.47,154.06 517.28,154.22 518.12,154.3 C 516.26,154.76 514.46,155.37 512.72,156.13 C 509.09,156.63 505.56,157.41 502.12,158.45 C 503.22,159.03 504.38,159.51 505.6,159.88 C 509.22,160.62 512.85,161.27 516.5,161.82 C 517.34,161.93 518.18,161.92 519.01,161.77 C 519.28,162.42 519.78,162.74 520.5,162.71 C 523.84,162.98 527.18,162.96 530.52,162.66 C 531.76,162.77 532.99,162.98 534.2,163.29 C 533.77,163.86 533.2,164.18 532.49,164.26 C 530.77,164.29 529.06,164.4 527.38,164.59 C 527.71,164.85 528.09,164.97 528.53,164.95 C 532.83,165.09 537.14,165.19 541.45,165.28 C 542.45,165.34 543.41,165.54 544.35,165.9 C 540.75,166.22 537.13,166.4 533.5,166.44 C 529.16,166.37 524.83,166.29 520.49,166.21 C 516.15,165.46 511.81,164.73 507.46,164.04 C 503.03,162.8 498.61,161.53 494.21,160.23 C 491.54,158.85 488.81,157.6 486.01,156.47 C 484.9,155.92 483.79,155.37 482.67,154.84 C 481.96,154.27 481.93,153.68 482.57,153.08 C 485.88,153.95 489.19,154.86 492.51,155.81 C 495.83,156.09 499.15,156.05 502.46,155.69 C 506.78,154.93 510.96,153.72 515.01,152.05 Z"/></g>
<g><path fill="#e8b159" fill-opacity="0.945" d="M 293.02,156 C 305.09,159.66 317.42,161.9 330.01,162.71 C 330.37,164.67 329.57,165.49 327.6,165.17 C 327.16,165.34 326.96,165.65 327,166.11 C 314.42,164.96 302.09,162.56 290.01,158.91 C 289.9,157.27 290.64,156.54 292.22,156.7 C 292.64,156.63 292.91,156.4 293.02,156 Z"/></g>
<g><path fill="#d29a42" fill-opacity="0.953" d="M 333.11,131.22 C 332.37,129.66 331.72,128.05 331.18,126.41 C 330.39,125.63 329.48,125.06 328.45,124.7 C 325.31,125.37 324.94,126.81 327.34,129.02 C 327.57,129.5 327.61,129.99 327.45,130.51 C 327.56,130.89 327.78,131.19 328.11,131.4 C 327.51,132.48 326.9,133.55 326.29,134.64 C 326.11,135.26 326.06,135.89 326.12,136.54 C 327.35,141.04 330.13,144.22 334.47,146.09 C 336.98,147.25 339.5,148.42 342,149.6 C 342.55,149.76 343.07,149.72 343.58,149.48 C 341.9,147.56 340.36,145.53 338.98,143.37 C 338.6,142.49 338.77,141.78 339.49,141.22 C 340.66,142.08 341.5,143.2 342.02,144.59 C 342.21,145.21 342.59,145.65 343.18,145.92 C 346.46,149.88 350.58,152.51 355.56,153.82 C 358.43,154.54 361.31,155.18 364.21,155.74 C 367.3,156.04 370.4,156.09 373.5,155.9 C 376.58,155.11 379.61,154.15 382.59,153.03 C 383.35,152.96 383.83,153.27 384.05,153.98 C 383.54,154.17 383.19,154.53 383.01,155.04 C 379.2,156.74 375.41,158.47 371.62,160.21 C 366,162.07 360.29,163.6 354.49,164.8 C 352.13,164.96 349.8,165.33 347.5,165.9 C 340.67,166.48 333.83,166.55 327,166.11 C 326.96,165.65 327.16,165.34 327.6,165.17 C 329.57,165.49 330.37,164.67 330.01,162.71 C 338.59,163.32 347.09,162.77 355.51,161.06 C 358.98,160.31 362.42,159.5 365.83,158.64 C 361.83,157.51 357.75,156.63 353.58,155.99 C 349.03,154.59 344.5,153.12 339.98,151.59 C 334.49,149.73 329.49,146.97 324.98,143.32 C 322.68,140.83 321.27,137.9 320.75,134.54 C 320.33,129.68 322.27,126.15 326.58,123.93 C 329.92,122.99 332.83,123.71 335.31,126.08 C 336.04,127.04 336.08,128.02 335.42,129.03 C 334.76,129.88 333.99,130.61 333.11,131.22 Z"/></g>
<g><path fill="#eabc71" fill-opacity="0.941" d="M 180.89,145.82 C 184.45,146.31 187.24,148.05 189.27,151.04 C 190.55,153.87 190.57,156.71 189.32,159.56 C 188,161.7 186.23,163.37 184,164.55 C 178.61,166.93 173.2,166.96 167.78,164.63 C 168.3,163.97 168.77,163.28 169.2,162.56 C 171.79,164 174.56,164.49 177.51,164.01 C 180.04,163.59 182.29,162.56 184.25,160.92 C 186.72,157.37 186.68,153.86 184.11,150.39 C 183.3,149.68 182.36,149.2 181.31,148.95 C 180.95,148.43 180.47,148.11 179.85,147.97 C 179.35,147.76 179.26,147.41 179.59,146.93 C 179.86,146.36 180.29,145.99 180.89,145.82 Z"/></g>
<g><path fill="#fcdda6" stroke="#fcdda6" stroke-width="0.5" d="M 428.01,137.88 C 428.75,134.13 431.02,132.17 434.83,131.99 C 436.4,132.09 437.97,132.14 439.53,132.15 C 439.65,132.29 439.76,132.43 439.88,132.57 C 440.15,134.96 439.89,137.29 439.09,139.55 C 437.76,141.92 435.78,143.4 433.13,144 C 432.75,143.96 432.42,143.81 432.14,143.55 C 430.62,141.76 429.25,139.87 428.01,137.88 Z"/></g>
<g><path fill="#e7b360" fill-opacity="0.961" stroke="#e7b360" stroke-width="0.5" stroke-opacity="0.961" d="M 240.92,155.92 C 241.29,156.32 241.53,156.78 241.65,157.3 C 241.36,157.96 241.18,158.66 241.11,159.38 C 238.97,160.02 236.84,160.7 234.72,161.42 C 228.84,163.99 224.61,168.2 222.01,174.04 C 220.59,173.65 219.39,172.9 218.42,171.78 C 223.55,163.15 231.05,157.86 240.92,155.92 Z"/></g>
<g><path fill="#d79e49" fill-opacity="0.961" stroke="#d79e49" stroke-width="0.5" stroke-opacity="0.961" d="M 218.42,171.78 C 219.39,172.9 220.59,173.65 222.01,174.04 C 221.49,175.64 220.84,177.18 220.06,178.66 C 219.9,179.2 220.07,179.6 220.58,179.86 C 222.54,180.29 224.51,180.69 226.48,181.07 C 228.65,181.03 230.83,180.96 233,180.84 C 232.9,181.2 232.67,181.43 232.29,181.53 C 231.43,181.48 230.74,181.78 230.23,182.41 C 230.5,182.94 230.94,183.24 231.55,183.31 C 232.72,183.41 233.88,183.45 235.05,183.43 C 234.94,183.71 234.72,183.85 234.39,183.83 C 231.77,184.14 229.14,184.38 226.5,184.55 C 222.8,184.45 219.16,183.91 215.59,182.94 C 215.03,182.23 214.85,181.42 215.04,180.52 C 215.95,177.52 217.08,174.61 218.42,171.78 Z"/></g>
<g><path fill="#e2ae5a" fill-opacity="0.906" d="M 699.22,133.33 C 698.65,134 698.29,134.77 698.13,135.64 C 693.82,132.89 689.18,130.91 684.21,129.7 C 680.96,129.28 677.73,128.8 674.5,128.26 C 671.15,128.46 667.82,128.76 664.48,129.18 C 664.09,128.29 663.87,127.37 663.81,126.4 C 673.15,124.95 682.25,125.86 691.12,129.14 C 693.98,130.23 696.68,131.63 699.22,133.33 Z"/></g>
<g><path fill="#f8e2b6" fill-opacity="0.914" d="M 706.35,141.85 C 707.1,142.96 707.58,144.19 707.8,145.53 C 707.96,146.82 708.14,148.09 708.35,149.37 C 708.66,150.18 709.24,150.61 710.12,150.66 C 709.99,151.16 709.86,151.66 709.73,152.16 C 708.86,152.08 708.12,152.34 707.51,152.94 C 705.41,159.26 701.25,163.57 695.01,165.86 C 695.58,164.65 695.24,163.91 693.97,163.66 C 693.96,163.56 693.95,163.47 693.95,163.38 C 695.12,162.81 696.36,162.43 697.65,162.21 C 698.49,161.72 699.26,161.14 699.96,160.48 C 701.01,159.27 702.05,158.05 703.07,156.82 C 703.83,155.77 704.42,154.64 704.85,153.44 C 705.06,152.35 704.76,151.46 703.95,150.76 C 701.6,149.71 699.19,148.86 696.7,148.21 C 696.7,147.38 696.72,146.54 696.78,145.7 C 699.56,146.84 702.4,147.79 705.31,148.55 C 705.69,148.3 705.83,147.95 705.73,147.48 C 705.65,146.73 705.48,146 705.21,145.29 C 705.77,144.2 706.15,143.05 706.35,141.85 Z"/></g>
<g><path fill="#e5b96b" fill-opacity="0.941" d="M 687.3,147.36 C 685.94,148.28 684.46,148.98 682.88,149.45 C 680.04,152.11 679.19,155.32 680.33,159.07 C 680.76,159.94 681.34,160.7 682.06,161.35 C 685.65,164.04 689.62,164.81 693.97,163.66 C 695.24,163.91 695.58,164.65 695.01,165.86 C 689.39,167.23 684.25,166.22 679.59,162.84 C 676.52,160.48 675.25,157.38 675.79,153.53 C 677.03,149.73 679.55,147.21 683.36,145.95 C 684.93,145.67 686.24,146.14 687.3,147.36 Z"/></g>
<g><path fill="#f4d59e" fill-opacity="0.812" d="M 675.05,139.72 C 682.23,141.95 689.47,143.95 696.78,145.7 C 696.72,146.54 696.7,147.38 696.7,148.21 C 694.84,147.55 692.96,146.93 691.06,146.36 C 689.61,146 688.16,145.97 686.71,146.29 C 686.8,145.87 686.67,145.52 686.32,145.25 C 685.66,144.96 684.99,144.68 684.32,144.42 C 680.06,143.76 675.91,142.75 671.87,141.39 C 673.35,141.56 674.41,141.01 675.05,139.72 Z"/></g>
<g><path fill="#c7933c" fill-opacity="0.945" d="M 650.29,175.9 C 650.91,177.38 651.41,178.94 651.79,180.56 C 651.84,181.41 651.66,182.21 651.26,182.97 C 649.32,183.24 647.39,183.64 645.45,184.17 C 644.31,184.31 643.15,184.36 641.99,184.33 C 642.46,183.69 643,183.13 643.62,182.65 C 642.74,181.96 641.72,181.67 640.56,181.78 C 640.16,181.69 639.98,181.45 640.01,181.05 C 642.18,180.44 644.37,179.96 646.6,179.61 C 646.25,178.75 646.08,177.86 646.09,176.94 C 646.63,177.06 647.14,177.29 647.6,177.61 C 648.46,177.88 649.27,177.79 650.04,177.34 C 650.31,176.89 650.39,176.41 650.29,175.9 Z"/></g>
<g><path fill="#edbf6f" fill-opacity="0.906" d="M 244.86,174.87 C 246.27,174.95 247.69,175.03 249.1,175.1 C 247.35,176.93 245.4,178.53 243.25,179.89 C 240.54,181.12 237.81,182.3 235.05,183.43 C 233.88,183.45 232.72,183.41 231.55,183.31 C 230.94,183.24 230.5,182.94 230.23,182.41 C 230.74,181.78 231.43,181.48 232.29,181.53 C 232.67,181.43 232.9,181.2 233,180.84 C 234.63,180.48 236.23,180.04 237.81,179.51 C 239.06,178.56 240.43,177.81 241.92,177.27 C 242.91,176.49 243.89,175.69 244.86,174.87 Z"/></g>
<g><path fill="#e9be74" fill-opacity="0.78" d="M 130.86,159.62 C 131.21,160.36 131.48,161.13 131.66,161.92 C 130.1,162.74 128.42,163.15 126.63,163.15 C 123.86,164.3 120.97,164.94 117.97,165.05 C 118.74,164.36 119.64,163.83 120.65,163.46 C 117.3,163.11 113.93,162.84 110.53,162.64 C 109.14,162.64 107.77,162.72 106.4,162.9 C 105.73,162.92 105.25,162.64 104.95,162.06 C 107.81,162.09 110.66,162.19 113.5,162.36 C 116.15,162.1 118.81,161.93 121.47,161.85 C 124.64,161.27 127.77,160.53 130.86,159.62 Z"/></g>
<g><path fill="#d8a044" fill-opacity="0.929" d="M 85.91,154.09 C 89.69,157.38 94.02,159.64 98.89,160.87 C 100.87,161.47 102.89,161.87 104.95,162.06 C 105.25,162.64 105.73,162.92 106.4,162.9 C 107.77,162.72 109.14,162.64 110.53,162.64 C 113.93,162.84 117.3,163.11 120.65,163.46 C 119.64,163.83 118.74,164.36 117.97,165.05 C 114.82,165.23 111.66,165.3 108.5,165.27 C 100.26,165.1 92.73,162.71 85.92,158.1 C 86.41,156.75 86.41,155.42 85.91,154.09 Z"/></g>
<g><path fill="#f9e4ba" fill-opacity="0.753" d="M 710.12,150.66 C 716.12,153.01 722.15,155.31 728.21,157.53 C 727.63,158.07 727.16,158.69 726.81,159.4 C 724.19,158.6 721.67,157.56 719.25,156.29 C 718.12,156.03 716.99,155.79 715.85,155.59 C 713.81,154.4 711.77,153.26 709.73,152.16 C 709.86,151.66 709.99,151.16 710.12,150.66 Z"/></g>
<g><path fill="#e0af5d" fill-opacity="0.882" d="M 658.08,136.72 C 660.17,136.73 662.27,136.91 664.35,137.25 C 667.92,138.07 671.49,138.89 675.05,139.72 C 674.41,141.01 673.35,141.56 671.87,141.39 C 669.28,140.86 666.7,140.24 664.15,139.53 C 660.74,139.22 657.34,138.8 653.96,138.28 C 654.09,137.85 654.34,137.52 654.72,137.28 C 655.81,136.94 656.93,136.75 658.08,136.72 Z"/></g>
<g><path fill="#d59e48" fill-opacity="0.933" d="M 258.89,144.34 C 259.07,144.62 259.06,144.9 258.86,145.18 C 257.63,145.89 256.3,146.29 254.86,146.36 C 249.7,144.29 244.53,142.26 239.34,140.26 C 237.06,139.57 234.78,138.92 232.49,138.34 C 227.17,137.99 221.84,137.88 216.5,138.01 C 212.5,138.51 208.51,139.01 204.51,139.52 C 201.77,140.18 199.02,140.71 196.24,141.1 C 195.15,140.76 194.4,140.06 194.02,139 C 195.93,138.77 197.8,138.43 199.63,137.98 C 201.13,138.56 202.39,138.23 203.4,137 C 205.75,136.61 208.12,136.3 210.5,136.07 C 215.3,135.99 220.07,135.82 224.81,135.57 C 224.47,134.98 223.99,134.57 223.36,134.31 C 218.61,132.92 213.84,131.58 209.06,130.29 C 207.14,130.04 205.23,129.75 203.32,129.41 C 200.05,128.99 196.78,128.62 193.5,128.29 C 190.02,128.73 186.55,129.19 183.08,129.68 C 182.67,129.27 182.18,129.11 181.6,129.2 C 181.2,129.34 180.99,129.62 180.99,130.04 C 179.96,130.18 178.97,130.48 178.04,130.94 C 177.68,130.11 177.26,129.31 176.78,128.54 C 184.17,125.98 191.74,125.09 199.52,125.88 C 207.18,126.64 214.67,128.21 221.99,130.59 C 226.23,131.99 230.47,133.41 234.7,134.85 C 242.76,138.03 250.83,141.19 258.89,144.34 Z M 663.81,126.4 C 663.87,127.37 664.09,128.29 664.48,129.18 C 660.13,129.87 655.84,130.85 651.62,132.13 C 648.42,133.02 645.31,134.1 642.28,135.37 C 647,135.76 651.74,135.97 656.52,136.01 C 657.2,135.94 657.71,136.18 658.08,136.72 C 656.93,136.75 655.81,136.94 654.72,137.28 C 654.34,137.52 654.09,137.85 653.96,138.28 C 647.46,137.86 640.96,137.85 634.46,138.26 C 627.96,140.65 621.48,143.05 614.99,145.45 C 609.8,147.61 604.62,149.78 599.44,151.97 C 598.83,151.89 598.23,151.91 597.64,152.05 C 596.26,152.34 595.38,153.14 594.98,154.46 C 594.14,154.87 593.49,155.47 593.05,156.27 C 590.89,156.18 588.73,156.27 586.58,156.55 C 583.16,157.64 579.7,158.59 576.19,159.42 C 576.07,158.96 575.78,158.62 575.34,158.42 C 574,158.56 572.9,158.15 572.03,157.17 C 575.55,156.23 579.05,155.24 582.54,154.2 C 598.05,148.98 613.37,143.25 628.5,137.01 C 637.31,133.52 646.28,130.53 655.41,128.01 C 658.2,127.4 660.99,126.86 663.81,126.4 Z"/></g>
<g><path fill="#eec480" fill-opacity="0.827" d="M 194.02,139 C 194.4,140.06 195.15,140.76 196.24,141.1 C 196.19,141.51 195.96,141.76 195.54,141.86 C 194.04,141.88 192.56,142.05 191.1,142.37 C 187.81,143.46 184.5,144.44 181.16,145.33 C 180.99,144.59 180.57,144.06 179.9,143.73 C 180.05,143.36 180.33,143.11 180.73,142.98 C 185.13,141.55 189.56,140.23 194.02,139 Z"/></g>
<g><path fill="#f6dbab" fill-opacity="0.812" d="M 145.87,154.69 C 146.75,154.88 147.48,155.31 148.05,156 C 142.63,158.1 137.17,160.07 131.66,161.92 C 131.48,161.13 131.21,160.36 130.86,159.62 C 135.92,158.14 140.92,156.5 145.87,154.69 Z"/></g>
<g><path fill="#c89241" fill-opacity="0.702" d="M 599.44,151.97 C 599.13,153.01 599.51,153.66 600.57,153.94 C 605.82,153.88 611.06,153.98 616.31,154.25 C 615.09,154.79 613.82,155.06 612.49,155.07 C 609.13,155.16 605.78,155.09 602.44,154.86 C 601.66,155.17 601.12,155.73 600.83,156.53 C 598.24,156.2 595.65,156.12 593.05,156.27 C 593.49,155.47 594.14,154.87 594.98,154.46 C 595.38,153.14 596.26,152.34 597.64,152.05 C 598.23,151.91 598.83,151.89 599.44,151.97 Z"/></g>
<g><path fill="#d4a04d" fill-opacity="0.953" d="M 251.85,165.8 C 252.89,166.43 253.77,167.22 254.5,168.16 C 252.95,170.67 251.15,172.98 249.1,175.1 C 247.69,175.03 246.27,174.95 244.86,174.87 C 245.75,174.22 246.55,173.46 247.23,172.58 C 248.89,170.4 250.43,168.14 251.85,165.8 Z"/></g>
<g><path fill="#c99241" fill-opacity="0.969" d="M 264.31,154.02 C 265.86,154.03 267.41,154.02 268.96,153.99 C 270.5,154.2 272.03,154.48 273.54,154.82 C 274.19,154.9 274.69,155.21 275.05,155.74 C 272.21,155.84 269.36,156 266.52,156.23 C 265.75,156.19 265.21,156.51 264.91,157.2 C 262.91,157.71 261.18,158.72 259.74,160.24 C 257.71,162.69 255.97,165.34 254.5,168.16 C 253.77,167.22 252.89,166.43 251.85,165.8 C 252.66,164.21 253.6,162.72 254.68,161.31 C 254.93,160.84 254.84,160.47 254.4,160.21 C 253.97,160.18 253.56,160.26 253.17,160.47 C 252.7,159.93 252.28,159.37 251.91,158.77 C 252.17,158.76 252.4,158.68 252.6,158.52 C 251.6,158.27 250.58,158.2 249.53,158.32 C 246.71,158.61 243.91,158.96 241.11,159.38 C 241.18,158.66 241.36,157.96 241.65,157.3 C 241.53,156.78 241.29,156.32 240.92,155.92 C 242.5,155.48 244.07,155.03 245.63,154.56 C 251.61,155.04 257.58,155.05 263.57,154.61 C 263.9,154.52 264.15,154.32 264.31,154.02 Z"/></g>
<g><path fill="#e7b265" fill-opacity="0.918" d="M 176.78,128.54 C 177.26,129.31 177.68,130.11 178.04,130.94 C 173.78,132.29 169.91,134.37 166.44,137.18 C 166.29,136.16 166.05,135.18 165.71,134.21 C 169.15,131.84 172.84,129.95 176.78,128.54 Z"/></g>
<g><path fill="#f6cd84" stroke="#f6cd84" stroke-width="0.5" d="M 537.63,131.34 C 536.41,131.35 535.19,131.44 533.98,131.61 C 533.63,130.89 533.42,130.13 533.34,129.34 C 533.89,128.05 534.47,126.78 535.1,125.52 C 535.39,124.94 535.87,124.64 536.52,124.62 C 537.39,125.29 538.34,125.81 539.38,126.18 C 540.05,126.81 540.33,127.59 540.21,128.53 C 539.52,129.32 538.9,130.16 538.36,131.06 C 538.11,131.15 537.87,131.25 537.63,131.34 Z"/></g>
<g><path fill="#f7e0af" fill-opacity="0.871" d="M 179.9,143.73 C 180.57,144.06 180.99,144.59 181.16,145.33 C 179.7,145.76 178.19,146.04 176.63,146.17 C 173.17,147.36 169.66,148.38 166.11,149.22 C 165.26,149.02 164.55,148.62 163.98,148.02 C 167.63,146.82 171.3,145.59 174.98,144.34 C 176.59,143.97 178.23,143.76 179.9,143.73 Z"/></g>
<g><path fill="#d6a14e" fill-opacity="0.761" d="M 622.07,157.84 C 623.07,157.87 623.74,158.36 624.08,159.28 C 622.56,159.09 621.04,158.96 619.51,158.87 C 618.59,158.8 617.74,158.96 616.96,159.37 C 618.47,160.23 619.99,161.12 621.51,162.05 C 622.43,162.67 623.17,163.45 623.73,164.38 C 623.2,164.78 622.62,164.81 621.99,164.47 C 619.24,163.25 616.49,161.99 613.77,160.7 C 614.07,160.64 614.37,160.59 614.67,160.53 C 614.97,159.91 615.06,159.26 614.96,158.58 C 615.14,158.38 615.32,158.18 615.5,157.97 C 617.69,158.09 619.88,158.04 622.07,157.84 Z"/></g>
<g><path fill="#cf9942" fill-opacity="0.965" stroke="#cf9942" stroke-width="0.5" stroke-opacity="0.965" d="M 616.31,154.25 C 619.59,154.62 622.85,155.16 626.07,155.89 C 624.38,155.74 622.74,155.93 621.16,156.44 C 621.54,156.86 621.84,157.33 622.07,157.84 C 619.88,158.04 617.69,158.09 615.5,157.97 C 615.32,158.18 615.14,158.38 614.96,158.58 C 615.06,159.26 614.97,159.91 614.67,160.53 C 614.37,160.59 614.07,160.64 613.77,160.7 C 613.15,160.33 612.48,160.17 611.77,160.23 C 611.52,160.49 611.51,160.75 611.76,161.03 C 612.34,161.66 612.9,162.3 613.45,162.95 C 615,165.58 616.6,168.17 618.25,170.72 C 617.16,171 616.25,171.59 615.53,172.49 C 612.89,168.28 610.16,164.13 607.34,160.05 C 605.53,158.21 603.36,157.04 600.83,156.53 C 601.12,155.73 601.66,155.17 602.44,154.86 C 605.78,155.09 609.13,155.16 612.49,155.07 C 613.82,155.06 615.09,154.79 616.31,154.25 Z"/></g>
<g><path fill="#e8b363" fill-opacity="0.933" d="M 618.25,170.72 C 619.58,172.69 621.19,174.4 623.09,175.83 C 623.1,176.55 623.47,176.9 624.19,176.89 C 624.01,177.39 624.16,177.76 624.64,178 C 625.15,178.19 625.67,178.29 626.22,178.28 C 630.51,180.64 635.11,181.57 640.01,181.05 C 639.98,181.45 640.16,181.69 640.56,181.78 C 641.72,181.67 642.74,181.96 643.62,182.65 C 643,183.13 642.46,183.69 641.99,184.33 C 640.84,184.57 639.67,184.64 638.5,184.54 C 636.64,184.25 634.79,183.98 632.93,183.73 C 628.69,182.51 624.72,180.71 621.01,178.33 C 620.78,177.69 620.33,177.28 619.68,177.11 C 618.26,175.6 616.88,174.06 615.53,172.49 C 616.25,171.59 617.16,171 618.25,170.72 Z"/></g>
<g><path fill="#fbc880" d="M 333.11,131.22 C 331.45,131.41 329.79,131.47 328.11,131.4 C 327.78,131.19 327.56,130.89 327.45,130.51 C 327.61,129.99 327.57,129.5 327.34,129.02 C 324.94,126.81 325.31,125.37 328.45,124.7 C 329.48,125.06 330.39,125.63 331.18,126.41 C 331.72,128.05 332.37,129.66 333.11,131.22 Z"/></g>
<g><path fill="#ecbb6d" fill-opacity="0.969" stroke="#ecbb6d" stroke-width="0.5" stroke-opacity="0.969" d="M 771.2,139.06 C 771.69,140.12 771.89,141.22 771.79,142.37 C 771.68,142.81 771.45,143.16 771.1,143.43 C 768.21,143.87 766.4,142.65 765.68,139.76 C 766.78,139.09 767.8,138.27 768.74,137.33 C 768.94,137.33 769.14,137.33 769.34,137.33 C 769.83,138.05 770.45,138.63 771.2,139.06 Z"/></g>
<g><path fill="#eac481" fill-opacity="0.902" d="M 699.22,133.33 C 702.5,135.42 704.88,138.25 706.35,141.85 C 706.15,143.05 705.77,144.2 705.21,145.29 C 705.05,144.51 704.83,143.74 704.56,142.99 C 703.04,140 700.9,137.54 698.13,135.64 C 698.29,134.77 698.65,134 699.22,133.33 Z"/></g>
<g><path fill="#efc073" fill-opacity="0.961" d="M 99.21,142.19 C 98.59,142.65 97.94,143.05 97.27,143.41 C 95.86,144 94.81,143.66 94.12,142.37 C 94.2,141.24 94.42,140.13 94.78,139.04 C 95.35,138.43 95.97,137.87 96.62,137.35 C 98.18,137.23 99.09,137.92 99.35,139.43 C 99.36,140.35 99.31,141.27 99.21,142.19 Z"/></g>
<g><path fill="#f6ecca" fill-opacity="0.627" d="M 157.64,149.85 C 158.06,151.27 158.43,152.7 158.75,154.14 C 158.42,153.07 157.7,152.6 156.58,152.72 C 153.77,153.92 150.93,155.01 148.05,156 C 147.48,155.31 146.75,154.88 145.87,154.69 C 145.87,154.62 145.87,154.55 145.88,154.48 C 149.03,153.09 152.27,151.92 155.61,150.99 C 156.35,150.74 157.03,150.36 157.64,149.85 Z"/></g>
<g><path fill="#f6dfb2" fill-opacity="0.878" d="M 159.55,141.79 C 160.72,142.13 161.29,142.9 161.27,144.09 C 160.5,145.59 160.47,147.09 161.16,148.6 C 161.5,148.96 161.89,149.04 162.35,148.84 C 162.94,148.66 163.48,148.39 163.98,148.02 C 164.55,148.62 165.26,149.02 166.11,149.22 C 164.52,149.68 163,150.25 161.53,150.94 C 161.09,152.07 161.08,153.22 161.51,154.39 C 162.55,156.18 163.68,157.91 164.92,159.57 C 166.15,160.84 167.58,161.84 169.2,162.56 C 168.77,163.28 168.3,163.97 167.78,164.63 C 165.61,163.59 163.79,162.12 162.31,160.22 C 160.89,158.33 159.71,156.3 158.75,154.14 C 158.43,152.7 158.06,151.27 157.64,149.85 C 157.88,148.42 158.08,146.99 158.25,145.55 C 158.56,144.25 158.99,143 159.55,141.79 Z"/></g>
<g><path fill="#d5a35f" fill-opacity="0.29" d="M 519.01,161.77 C 526.17,162.09 533.33,162.13 540.51,161.9 C 541.44,161.85 542.31,162.06 543.11,162.54 C 540.58,163.07 538.02,163.17 535.45,162.82 C 534.98,162.85 534.56,163.01 534.2,163.29 C 532.99,162.98 531.76,162.77 530.52,162.66 C 527.18,162.96 523.84,162.98 520.5,162.71 C 519.78,162.74 519.28,162.42 519.01,161.77 Z"/></g>
<g><path fill="#e7b15b" fill-opacity="0.929" d="M 572.03,157.17 C 572.9,158.15 574,158.56 575.34,158.42 C 575.78,158.62 576.07,158.96 576.19,159.42 C 570.35,161.17 564.44,162.61 558.45,163.76 C 553.76,164.56 549.06,165.27 544.35,165.9 C 543.41,165.54 542.45,165.34 541.45,165.28 C 537.14,165.19 532.83,165.09 528.53,164.95 C 528.09,164.97 527.71,164.85 527.38,164.59 C 529.06,164.4 530.77,164.29 532.49,164.26 C 533.2,164.18 533.77,163.86 534.2,163.29 C 534.56,163.01 534.98,162.85 535.45,162.82 C 538.02,163.17 540.58,163.07 543.11,162.54 C 552.89,161.48 562.53,159.7 572.03,157.17 Z"/></g>
<g><path fill="#e2b259" fill-opacity="0.882" d="M 742.28,161.27 C 744.48,161.76 746.71,162.07 748.97,162.2 C 749.47,162.67 749.98,163.11 750.52,163.53 C 749.55,163.78 748.56,163.94 747.53,164 C 747.11,164.18 746.94,164.48 747,164.91 C 744.29,164.58 741.63,164.02 739.03,163.23 C 739.08,162.83 739.29,162.53 739.65,162.34 C 740.58,162.12 741.46,161.76 742.28,161.27 Z"/></g>
<g><path fill="#f1ca85" fill-opacity="0.827" d="M 728.21,157.53 C 732.81,159.11 737.5,160.35 742.28,161.27 C 741.46,161.76 740.58,162.12 739.65,162.34 C 739.29,162.53 739.08,162.83 739.03,163.23 C 734.83,162.37 730.76,161.09 726.81,159.4 C 727.16,158.69 727.63,158.07 728.21,157.53 Z"/></g>
<g><path fill="#d8a54f" fill-opacity="0.953" d="M 747,164.91 C 746.94,164.48 747.11,164.18 747.53,164 C 748.56,163.94 749.55,163.78 750.52,163.53 C 749.98,163.11 749.47,162.67 748.97,162.2 C 757.87,163.21 766.36,161.78 774.43,157.92 C 779.82,155.36 783.19,151.2 784.54,145.43 C 785.24,141.48 784.2,138.06 781.44,135.18 C 779.72,133.65 777.72,133.04 775.45,133.34 C 772.51,134.08 771.09,135.99 771.2,139.06 C 770.45,138.63 769.83,138.05 769.34,137.33 C 769.14,137.33 768.94,137.33 768.74,137.33 C 767.8,138.27 766.78,139.09 765.68,139.76 C 765.53,136.76 766.54,134.2 768.69,132.08 C 772.25,129.33 776.12,128.79 780.29,130.45 C 785.92,133.45 788.47,138.13 787.94,144.51 C 786.43,152.75 781.77,158.45 773.96,161.62 C 765.28,165.14 756.3,166.24 747,164.91 Z"/></g>
<g><path fill="#ecc989" fill-opacity="0.914" d="M 165.71,134.21 C 166.05,135.18 166.29,136.16 166.44,137.18 C 164.05,138.98 162.33,141.29 161.27,144.09 C 161.29,142.9 160.72,142.13 159.55,141.79 C 161,138.78 163.06,136.25 165.71,134.21 Z"/></g>
<g><path fill="#d1984b" fill-opacity="0.784" d="M 251.91,158.77 C 252.28,159.37 252.7,159.93 253.17,160.47 C 249.86,161.9 246.59,163.43 243.36,165.06 C 242.85,165.16 242.51,164.98 242.32,164.52 C 244.27,162.78 246.39,161.27 248.7,159.98 C 249.84,159.75 250.91,159.35 251.91,158.77 Z"/></g>
<g><path fill="#c89755" fill-opacity="0.533" d="M 264.31,154.02 C 264.15,154.32 263.9,154.52 263.57,154.61 C 257.58,155.05 251.61,155.04 245.63,154.56 C 246.91,154.09 248.24,153.86 249.61,153.9 C 254.51,153.92 259.41,153.97 264.31,154.02 Z"/></g>
<g><path fill="#c29559" fill-opacity="0.251" d="M 275.05,155.74 C 277.19,155.89 279.34,156.02 281.49,156.15 C 282.21,156.22 282.66,156.6 282.85,157.27 C 276.87,156.9 270.89,156.87 264.91,157.2 C 265.21,156.51 265.75,156.19 266.52,156.23 C 269.36,156 272.21,155.84 275.05,155.74 Z"/></g>
<g><path fill="#cd943e" fill-opacity="0.937" stroke="#cd943e" stroke-width="0.5" stroke-opacity="0.937" d="M 258.89,144.34 C 270.07,148.8 281.45,152.68 293.02,156 C 292.91,156.4 292.64,156.63 292.22,156.7 C 290.64,156.54 289.9,157.27 290.01,158.91 C 287.57,158.54 285.18,157.99 282.85,157.27 C 282.66,156.6 282.21,156.22 281.49,156.15 C 279.34,156.02 277.19,155.89 275.05,155.74 C 274.69,155.21 274.19,154.9 273.54,154.82 C 272.03,154.48 270.5,154.2 268.96,153.99 C 269.21,152.85 268.82,152.04 267.78,151.55 C 266.55,151.09 265.28,150.74 263.99,150.47 C 260.87,149.29 257.83,147.92 254.86,146.36 C 256.3,146.29 257.63,145.89 258.86,145.18 C 259.06,144.9 259.07,144.62 258.89,144.34 Z"/></g>
<g><path fill="#e2b981" fill-opacity="0.69" d="M 525.26,145.31 C 524.91,144.77 524.48,144.32 523.96,143.94 C 523.94,143.55 524.06,143.21 524.33,142.92 C 524.9,142.12 525.62,141.52 526.49,141.11 C 526.88,141.43 527,141.85 526.85,142.35 C 526.53,143.45 526.01,144.43 525.26,145.31 Z"/></g>
<g><path fill="#ddba7b" fill-opacity="0.412" d="M 203.4,137 C 202.39,138.23 201.13,138.56 199.63,137.98 C 199.72,137.59 199.97,137.32 200.36,137.17 C 201.36,136.92 202.38,136.87 203.4,137 Z"/></g>
<g><path fill="#c7a35b" fill-opacity="0.125" d="M 545.02,131.98 C 545.79,132.15 546.13,132.66 546.02,133.51 C 545.96,133.86 545.91,134.21 545.85,134.57 C 545.69,134.97 545.42,135.12 545.03,135.01 C 545.03,134 545.03,132.99 545.02,131.98 Z"/></g>
<g><path fill="#e9b870" fill-opacity="0.596" d="M 183.08,129.68 C 182.39,129.87 181.7,129.99 180.99,130.04 C 180.99,129.62 181.2,129.34 181.6,129.2 C 182.18,129.11 182.67,129.27 183.08,129.68 Z"/></g>
<g><path fill="#e7c698" fill-opacity="0.478" d="M 624.19,176.89 C 625.32,176.66 625.99,177.12 626.22,178.28 C 625.67,178.29 625.15,178.19 624.64,178 C 624.16,177.76 624.01,177.39 624.19,176.89 Z"/></g>
<g><path fill="#d4a56b" fill-opacity="0.647" d="M 384.05,153.98 C 383.86,154.49 383.51,154.84 383.01,155.04 C 383.19,154.53 383.54,154.17 384.05,153.98 Z"/></g>
<g><path fill="#debb93" fill-opacity="0.604" d="M 179.85,147.97 C 180.47,148.11 180.95,148.43 181.31,148.95 C 180.62,148.91 180.14,148.59 179.85,147.97 Z"/></g>
<g><path fill="#efc584" fill-opacity="0.624" d="M 623.09,175.83 C 623.54,176.1 623.91,176.45 624.19,176.89 C 623.47,176.9 623.1,176.55 623.09,175.83 Z"/></g>
<g><path fill="#dcad6b" fill-opacity="0.522" d="M 342.02,144.59 C 342.47,144.98 342.86,145.42 343.18,145.92 C 342.59,145.65 342.21,145.21 342.02,144.59 Z"/></g>
<g><path fill="#dbb37d" fill-opacity="0.647" d="M 619.68,177.11 C 620.33,177.28 620.78,177.69 621.01,178.33 C 620.44,178.06 620,177.65 619.68,177.11 Z"/></g>
<g><path fill="#0d0b07" fill-opacity="0.008" stroke="#0d0b07" stroke-width="0.5" stroke-opacity="0.008" d="M 698.13,135.64 C 700.9,137.54 703.04,140 704.56,142.99 C 704.83,143.74 705.05,144.51 705.21,145.29 C 705.48,146 705.65,146.73 705.73,147.48 C 705.83,147.95 705.69,148.3 705.31,148.55 C 702.4,147.79 699.56,146.84 696.78,145.7 C 689.47,143.95 682.23,141.95 675.05,139.72 C 671.49,138.89 667.92,138.07 664.35,137.25 C 662.27,136.91 660.17,136.73 658.08,136.72 C 657.71,136.18 657.2,135.94 656.52,136.01 C 651.74,135.97 647,135.76 642.28,135.37 C 645.31,134.1 648.42,133.02 651.62,132.13 C 655.84,130.85 660.13,129.87 664.48,129.18 C 667.82,128.76 671.15,128.46 674.5,128.26 C 677.73,128.8 680.96,129.28 684.21,129.7 C 689.18,130.91 693.82,132.89 698.13,135.64 Z M 624.08,159.28 C 624.73,159.15 625.38,159.17 626.02,159.36 C 628.15,159.92 630.24,160.61 632.29,161.42 C 636.74,163.41 640.33,166.41 643.07,170.41 C 644.22,172.51 645.23,174.69 646.09,176.94 C 646.08,177.86 646.25,178.75 646.6,179.61 C 644.37,179.96 642.18,180.44 640.01,181.05 C 635.11,181.57 630.51,180.64 626.22,178.28 C 625.99,177.12 625.32,176.66 624.19,176.89 C 623.91,176.45 623.54,176.1 623.09,175.83 C 621.19,174.4 619.58,172.69 618.25,170.72 C 616.6,168.17 615,165.58 613.45,162.95 C 612.9,162.3 612.34,161.66 611.76,161.03 C 611.51,160.75 611.52,160.49 611.77,160.23 C 612.48,160.17 613.15,160.33 613.77,160.7 C 616.49,161.99 619.24,163.25 621.99,164.47 C 622.62,164.81 623.2,164.78 623.73,164.38 C 623.17,163.45 622.43,162.67 621.51,162.05 C 619.99,161.12 618.47,160.23 616.96,159.37 C 617.74,158.96 618.59,158.8 619.51,158.87 C 621.04,158.96 622.56,159.09 624.08,159.28 Z"/></g>
</svg>
